<?xml version="1.0" encoding="UTF-8"?>
<svg width="153px" height="46px" viewBox="0 0 153 46" version="1.1" xmlns="http://www.w3.org/2000/svg" xmlns:xlink="http://www.w3.org/1999/xlink">
<defs></defs>
<g id="Page-1" stroke="none" stroke-width="1" fill="none" fill-rule="evenodd">
<g id="Group" transform="translate(-21.000000, -19.000000)" fill="#FFFFFF" fill-rule="nonzero">
<path d="M45.5076923,45.2538462 L39.5769231,45.2538462 L39.5769231,34.8692308 L45.3461538,34.8692308 C49.0846154,34.8692308 51.4153846,36.6692308 51.4153846,40.0153846 L51.4153846,40.1192308 C51.4153846,43.0269231 49.2346154,45.2653846 45.4961538,45.2653846 L45.5076923,45.2538462 Z M65.5846154,27.6576923 L65.5846154,56.1576923 C65.5719391,60.6450552 61.9373629,64.2796315 57.45,64.2923077 L39.5769231,64.2923077 L39.5769231,51.9115385 L45.2653846,51.9115385 C52.8923077,51.9115385 59.0076923,47.8269231 59.0076923,39.9576923 L59.0076923,39.8653846 C59.0076923,32.9423077 54.1038462,28.1076923 45.9923077,28.1076923 L32.1461538,28.1076923 L32.1461538,64.2923077 L29.6423077,64.2923077 C25.1549448,64.2796315 21.5203685,60.6450552 21.5076923,56.1576923 L21.5076923,27.6576923 C21.5203685,23.1703294 25.1549448,19.5357532 29.6423077,19.5230769 L57.4961538,19.5230769 C61.9835167,19.5357532 65.618093,23.1703294 65.6307692,27.6576923 L65.5846154,27.6576923 Z M74.1576923,26.4461538 L80.1346154,26.4461538 C83.5961538,26.4461538 85.7423077,28.5230769 85.7423077,31.5115385 C85.7423077,34.8923077 83.1,36.6461538 79.8230769,36.6461538 L77.3769231,36.6461538 L77.3769231,41.0423077 L74.1576923,41.0423077 L74.1576923,26.4461538 Z M79.9269231,33.8307692 C80.5639685,33.8984144 81.2004662,33.698203 81.6840751,33.278054 C82.1676841,32.8579051 82.4548794,32.2556321 82.4769231,31.6153846 C82.4769231,30.1730769 81.4730769,29.4 79.8576923,29.4 L77.3769231,29.4 L77.3769231,33.8769231 L79.9269231,33.8307692 Z M88.1538462,26.4576923 L94.8346154,26.4576923 C96.3976869,26.3611164 97.9345952,26.8928036 99.1038462,27.9346154 C99.9555369,28.8357743 100.408808,30.0417252 100.361538,31.2807692 C100.4327,33.3198602 99.1565423,35.1637196 97.2230769,35.8153846 L100.8,41.0423077 L97.0269231,41.0423077 L93.9,36.3576923 L91.3615385,36.3576923 L91.3615385,41.0423077 L88.1538462,41.0423077 L88.1538462,26.4576923 Z M94.6269231,33.5538462 C96.1961538,33.5538462 97.0961538,32.7230769 97.0961538,31.4884615 C97.0961538,30.1153846 96.1384615,29.4 94.5692308,29.4 L91.3615385,29.4 L91.3615385,33.6 L94.6269231,33.5538462 Z M103.292308,26.4461538 L114.323077,26.4461538 L114.323077,29.3192308 L106.488462,29.3192308 L106.488462,32.2846154 L113.388462,32.2846154 L113.388462,35.1461538 L106.488462,35.1461538 L106.488462,38.2153846 L114.438462,38.2153846 L114.438462,41.0884615 L103.292308,41.0884615 L103.292308,26.4461538 Z M117.323077,26.4461538 L120.796154,26.4461538 L124.638462,32.6423077 L128.492308,26.4461538 L131.953846,26.4461538 L131.953846,41.0884615 L128.757692,41.0884615 L128.757692,31.5346154 L124.638462,37.7769231 L124.557692,37.7769231 L120.484615,31.5923077 L120.484615,41.0884615 L117.323077,41.0884615 L117.323077,26.4461538 Z M135.646154,26.4461538 L138.865385,26.4461538 L138.865385,41.0769231 L135.646154,41.0769231 L135.646154,26.4461538 Z M142.315385,34.8115385 L142.315385,26.4461538 L145.534615,26.4461538 L145.534615,34.7307692 C145.534615,37.1076923 146.688462,38.3423077 148.696154,38.3423077 C150.703846,38.3423077 151.846154,37.1884615 151.846154,34.8807692 L151.846154,26.4923077 L155.065385,26.4923077 L155.065385,34.7538462 C155.065385,39.1846154 152.584615,41.3653846 148.65,41.3653846 C144.715385,41.3653846 142.315385,39.1615385 142.315385,34.8576923 L142.315385,34.8115385 Z M158.376923,26.4461538 L161.85,26.4461538 L165.703846,32.6423077 L169.546154,26.4461538 L173.007692,26.4461538 L173.007692,41.0884615 L169.811538,41.0884615 L169.811538,31.5346154 L165.703846,37.7769231 L165.611538,37.7769231 L161.538462,31.5923077 L161.538462,41.0884615 L158.376923,41.0884615 L158.376923,26.4461538 Z M74.1576923,44.4230769 L80.1346154,44.4230769 C83.5961538,44.4230769 85.7423077,46.4884615 85.7423077,49.4769231 C85.7423077,52.8576923 83.1,54.6115385 79.8230769,54.6115385 L77.3769231,54.6115385 L77.3769231,59.0076923 L74.1576923,59.0076923 L74.1576923,44.4230769 Z M79.9269231,51.7961538 C80.5639685,51.863799 81.2004662,51.6635876 81.6840751,51.2434386 C82.1676841,50.8232897 82.4548794,50.2210167 82.4769231,49.5807692 C82.4769231,48.1384615 81.4730769,47.3653846 79.8576923,47.3653846 L77.3769231,47.3653846 L77.3769231,51.8423077 L79.9269231,51.7961538 Z M92.1807692,44.2961538 L95.1461538,44.2961538 L101.423077,59.0423077 L98.0538462,59.0423077 L96.7153846,55.7538462 L90.5307692,55.7538462 L89.1923077,59.0423077 L85.9153846,59.0423077 L92.1807692,44.2961538 Z M95.5730769,52.9153846 L93.6230769,48.1730769 L91.6846154,52.9153846 L95.5730769,52.9153846 Z M104.192308,44.4230769 L110.873077,44.4230769 C112.43668,44.3225885 113.975056,44.8547835 115.142308,45.9 C115.993998,46.8011589 116.44727,48.0071098 116.4,49.2461538 C116.471161,51.2852448 115.195004,53.1291042 113.261538,53.7807692 L116.838462,59.0076923 L113.076923,59.0076923 L109.938462,54.3230769 L107.411538,54.3230769 L107.411538,59.0076923 L104.192308,59.0076923 L104.192308,44.4230769 Z M110.665385,51.5192308 C112.234615,51.5192308 113.134615,50.6884615 113.134615,49.4538462 C113.134615,48.0807692 112.176923,47.3653846 110.607692,47.3653846 L107.411538,47.3653846 L107.411538,51.5653846 L110.665385,51.5192308 Z M119.815385,44.4 L123.034615,44.4 L123.034615,50.8038462 L128.965385,44.4 L132.853846,44.4 L126.9,50.6076923 L133.130769,59.0423077 L129.265385,59.0423077 L124.730769,52.8115385 L123.034615,54.5653846 L123.034615,59.0423077 L119.815385,59.0423077 L119.815385,44.4 Z M135.726923,44.4115385 L138.946154,44.4115385 L138.946154,59.0423077 L135.726923,59.0423077 L135.726923,44.4115385 Z M143.111538,44.4 L146.088462,44.4 L152.942308,53.4115385 L152.942308,44.4 L156.115385,44.4 L156.115385,59.0423077 L153.380769,59.0423077 L146.296154,49.7423077 L146.296154,59.0423077 L143.111538,59.0423077 L143.111538,44.4 Z M159.484615,51.7615385 C159.468549,49.7310609 160.27521,47.7805753 161.720768,46.3545812 C163.166327,44.928587 165.127622,44.1485766 167.157692,44.1923077 C169.270687,44.0716612 171.345328,44.7936364 172.926923,46.2 L170.896154,48.6461538 C169.872338,47.6608092 168.497499,47.1249958 167.076923,47.1576923 C165.906386,47.2084569 164.80454,47.7243775 164.01598,48.5909267 C163.227421,49.4574758 162.817395,50.6029529 162.876923,51.7730769 C162.813044,52.9834533 163.253048,54.1662778 164.092439,55.0406432 C164.93183,55.9150085 166.095717,56.4029045 167.307692,56.3884615 C168.385462,56.4161146 169.445415,56.1098163 170.342308,55.5115385 L170.342308,53.4115385 L167.076923,53.4115385 L167.076923,50.6423077 L173.434615,50.6423077 L173.434615,56.9884615 C171.69789,58.4890455 169.475939,59.3089535 167.180769,59.2961538 C165.139856,59.3999407 163.148333,58.6466663 161.686986,57.2181832 C160.225639,55.7897001 159.427269,53.8158227 159.484615,51.7730769 L159.484615,51.7615385 Z" id="Combined-Shape"></path>
</g>
</g>
</svg>
